<?xml version="1.0" encoding="UTF-8" standalone="no"?>
<svg width="36" xmlns="http://www.w3.org/2000/svg" viewBox="0 0 40 40" height="36">
 <path d="m40 20.03c0.007-4.628-1.592-9.116-4.523-12.698-2.932-3.5814-7.015-6.0354-11.554-6.9434-4.538-0.90794-9.251-0.21359-13.335 1.9647-4.0843 2.1783-7.2863 5.7056-9.0604 9.9807-1.7742 4.275-2.0106 9.033-0.66907 13.463 1.3416 4.43 4.1781 8.257 8.026 10.83 3.8475 2.572 8.4685 3.73 13.076 3.277 4.606-0.454 8.912-2.491 12.185-5.764 3.741-3.743 5.847-8.817 5.855-14.11z" fill="url(#paint0_linear_amazon-icon-circle-pp9voy380ws)"/>
 <path fill="url(#paint1_linear_amazon-icon-circle-pp9voy380ws)" transform="translate(4 12)" clip-rule="evenodd" d="m24.259 0.017196c-0.031 0.008057-0.057 0.02715-0.057 0.042376s-0.026 0.036091-0.058 0.046238c-0.249 0.07855-0.48 0.65569-0.335 0.83542 0.016 0.02014 0.04 0.08367 0.052 0.14127 0.013 0.0576 0.034 0.1048 0.048 0.1048s0.082 0.0447 0.151 0.0993c0.239 0.1891 1.048 0.0803 1.048-0.1409 0-0.014 0.031-0.0668 0.069-0.1172 0.101-0.13665 0.081-0.65232-0.028-0.72862-0.04-0.02795-0.073-0.06807-0.074-0.08926-0.004-0.12567-0.565-0.25876-0.816-0.19342zm-20.755 2.4275c-0.0712 0.0136-0.2242 0.0423-0.3399 0.0637-0.208 0.0384-0.7204 0.195-0.8322 0.2542-0.0318 0.0169-0.1523 0.0775-0.2677 0.1346s-0.2465 0.1304-0.2913 0.1628c-0.2794 0.2021-0.3417 0.1822-0.3774-0.1206-0.03-0.2545-0.0632-0.2698-0.5856-0.2698h-0.43023l-0.06409 0.1047c-0.06279 0.1025-0.06416 0.171-0.06433 3.1359l-0.00008 3.0311 0.09079 0.0866c0.13772 0.1314 0.97424 0.1349 1.1151 0.0047l0.0887-0.0818v-4.9234l0.0909-0.0644c0.05-0.0354 0.1519-0.0888 0.2265-0.1185 0.0747-0.0297 0.1358-0.0658 0.1358-0.0802s0.0473-0.0364 0.1051-0.0488c0.0579-0.0124 0.1562-0.0479 0.2185-0.0789 0.0623-0.0309 0.1861-0.0665 0.2751-0.079s0.2242-0.0433 0.3005-0.0686c0.5167-0.1713 1.3652 0.1198 1.3666 0.4689 0.0001 0.0269 0.0256 0.0925 0.0566 0.1457 0.0518 0.0888 0.0578 0.289 0.0726 2.4716 0.0129 1.887 0.0249 2.3836 0.0582 2.4168 0.0822 0.0819 1.0412 0.0738 1.1394-0.0095l0.0809-0.0686 0.0087-2.4371 0.0087-2.437 0.0809-0.0747c0.0446-0.0412 0.128-0.0907 0.1856-0.1103 0.0575-0.0195 0.1392-0.0621 0.1817-0.0947 0.0425-0.0327 0.1009-0.0593 0.1299-0.0593s0.1048-0.0278 0.1684-0.0617 0.1871-0.072 0.2746-0.0845c0.0875-0.0126 0.21-0.0441 0.2723-0.0701 0.0715-0.0298 0.2389-0.0492 0.4532-0.0524 0.5979-0.0092 0.8617 0.1737 1.0384 0.7198l0.0782 0.2417 0.0162 2.2933c0.0089 1.2614 0.0283 2.3055 0.043 2.3202 0.0705 0.0703 1.0406 0.0503 1.1071-0.0228 0.0641-0.0705 0.0864-4.5139 0.026-5.1521-0.0878-0.926-1.2563-1.6258-2.2686-1.3586-0.0667 0.0176-0.2208 0.0476-0.3425 0.0667s-0.2527 0.0542-0.2913 0.0781c-0.0385 0.0238-0.1175 0.052-0.1756 0.0626-0.132 0.0242-0.6872 0.2922-0.8816 0.4256-0.2826 0.1939-0.2847 0.1943-0.4081 0.0753-0.0603-0.0583-0.1098-0.1191-0.1098-0.1351 0-0.0437-0.3303-0.3413-0.4045-0.3646-0.0356-0.0111-0.0872-0.0397-0.1145-0.0635-0.0452-0.0393-0.2497-0.0994-0.5976-0.1757-0.1539-0.0338-0.4666-0.033-0.6473 0.0017zm16.643 0.0454c-0.085 0.0245-0.245 0.0549-0.356 0.0676-0.111 0.0126-0.252 0.0491-0.314 0.0808-0.063 0.0317-0.201 0.0988-0.308 0.1489-0.199 0.0938-0.594 0.4357-0.679 0.5881-0.216 0.3917-0.313 0.8323-0.247 1.1309 0.117 0.5299 0.305 0.8479 0.659 1.1132 0.094 0.0699 0.189 0.1453 0.213 0.1676 0.023 0.0222 0.061 0.0404 0.085 0.0404 0.022 0 0.079 0.0292 0.124 0.0648 0.046 0.0355 0.131 0.0738 0.191 0.0849 0.059 0.0112 0.129 0.0386 0.156 0.0612 0.027 0.0225 0.113 0.0579 0.191 0.0787 0.079 0.0209 0.173 0.057 0.211 0.0804 0.037 0.0234 0.118 0.0532 0.181 0.0662 0.062 0.0129 0.164 0.0506 0.226 0.0836 0.062 0.0332 0.139 0.0602 0.171 0.0602 0.033 0 0.113 0.0278 0.179 0.0618s0.156 0.0785 0.2 0.0989c0.501 0.2293 0.673 0.5455 0.548 1.0075-0.069 0.2554-0.344 0.572-0.496 0.572-0.038 0-0.106 0.0253-0.15 0.0563-0.07 0.0496-0.166 0.0564-0.792 0.0564-0.587 0-0.744-0.0099-0.895-0.0564-0.101-0.031-0.22-0.0563-0.266-0.0563s-0.18-0.0363-0.298-0.0806c-0.237-0.0886-0.42-0.1015-0.507-0.0357-0.146 0.1104-0.022 0.8252 0.144 0.8252 0.02 0 0.06 0.0193 0.088 0.0429 0.317 0.2659 2.078 0.4727 2.553 0.2996 0.076-0.0278 0.215-0.0606 0.307-0.0729 0.093-0.0121 0.212-0.0488 0.266-0.0813 0.053-0.0326 0.119-0.0595 0.146-0.0599 0.05-0.0007 0.303-0.1557 0.391-0.2402 0.028-0.0272 0.062-0.0493 0.076-0.0493 0.047 0 0.278-0.258 0.383-0.428 0.426-0.6881 0.353-1.5491-0.178-2.098-0.158-0.1637-0.208-0.1992-0.438-0.3106-0.075-0.0366-0.137-0.0805-0.137-0.0974 0-0.0168-0.027-0.0307-0.06-0.0307s-0.129-0.0362-0.212-0.0805c-0.084-0.0444-0.177-0.0811-0.207-0.0816-0.031-0.0005-0.128-0.0367-0.217-0.0803s-0.18-0.0793-0.203-0.0795c-0.022-0.0002-0.094-0.0293-0.161-0.0648-0.066-0.0354-0.143-0.0645-0.17-0.0647-0.027-0.0001-0.093-0.029-0.146-0.0642s-0.123-0.0641-0.154-0.0642c-0.161-0.0006-0.711-0.3829-0.754-0.5239-0.012-0.0399-0.046-0.0994-0.075-0.1322-0.215-0.2436 0.041-0.7936 0.469-1.0057l0.191-0.0947 0.679 0.0006c0.568 0.0005 0.696 0.0093 0.778 0.0534 0.053 0.029 0.177 0.0676 0.275 0.0856 0.097 0.018 0.221 0.0556 0.274 0.0834 0.259 0.1349 0.312 0.0708 0.301-0.3671-0.009-0.3259-0.016-0.3684-0.074-0.4002-0.036-0.0197-0.073-0.0457-0.082-0.0579-0.028-0.0364-0.192-0.0906-0.275-0.0906-0.043 0-0.133-0.0274-0.201-0.0611-0.078-0.0393-0.227-0.0683-0.416-0.0813-0.162-0.0111-0.344-0.0345-0.405-0.052-0.195-0.056-0.616-0.0653-0.783-0.0173zm8.845 0.0788c-0.167 0.0135-0.306 0.0431-0.356 0.0752-0.044 0.0291-0.136 0.063-0.204 0.0754-0.067 0.0122-0.14 0.0398-0.162 0.0613-0.021 0.0215-0.081 0.0497-0.133 0.0626s-0.13 0.0516-0.174 0.086c-0.044 0.0343-0.098 0.0624-0.12 0.0624-0.051 0-0.695 0.6182-0.695 0.6679 0 0.0208-0.019 0.0495-0.042 0.0636-0.038 0.0236-0.124 0.1879-0.311 0.5933-0.037 0.0817-0.068 0.179-0.068 0.2163s-0.031 0.1444-0.07 0.2381c-0.133 0.3274-0.12 2.0664 0.019 2.3295 0.028 0.0531 0.05 0.1301 0.051 0.1711 0 0.0685 0.123 0.3752 0.197 0.4895 0.017 0.0265 0.054 0.0991 0.082 0.1611 0.074 0.1611 0.458 0.6122 0.522 0.6122 0.016 0 0.072 0.0363 0.124 0.0806 0.052 0.0442 0.11 0.0805 0.13 0.0806 0.019 0 0.061 0.0282 0.092 0.0626s0.098 0.0716 0.148 0.0826c0.051 0.0111 0.108 0.0397 0.128 0.0637 0.02 0.0241 0.098 0.054 0.173 0.0664 0.074 0.0124 0.208 0.0513 0.297 0.0865 0.178 0.0703 1.616 0.091 1.861 0.0267 0.643-0.1687 0.745-0.2625 0.745-0.6843 0-0.3873-0.132-0.468-0.518-0.3165-0.09 0.0355-0.24 0.0648-0.333 0.0651s-0.256 0.013-0.363 0.028c-0.261 0.0367-1.007-0.0291-1.117-0.0986-0.044-0.0282-0.12-0.0604-0.169-0.0716-0.232-0.0537-0.693-0.5106-0.751-0.7446-0.013-0.0532-0.046-0.1217-0.074-0.1522-0.029-0.0322-0.06-0.1541-0.074-0.29-0.014-0.129-0.041-0.2754-0.061-0.3252-0.052-0.1316-0.044-0.8643 0.013-1.1608 0.026-0.139 0.048-0.3084 0.048-0.3765 0-0.1182 0.143-0.5258 0.217-0.6168 0.019-0.0238 0.043-0.0727 0.054-0.1088 0.047-0.152 0.476-0.5246 0.668-0.5794 0.044-0.0127 0.103-0.0418 0.129-0.0647 0.147-0.1257 1.771-0.1248 1.963 0.001 0.219 0.1425 0.368 0.0122 0.368-0.3216 0-0.3765-0.142-0.5648-0.425-0.5648-0.05 0-0.162-0.0279-0.249-0.0618-0.18-0.0708-1.065-0.1112-1.56-0.0711zm-17.418 0.0898c-0.127 0.0216-0.122-0.0862-0.125 2.6478-0.003 2.3824 0.004 2.6789 0.067 2.7607 0.014 0.0177 0.041 0.0932 0.061 0.1677s0.056 0.1549 0.08 0.1788c0.024 0.0237 0.053 0.0736 0.065 0.1108 0.018 0.0567 0.206 0.2455 0.381 0.3834 0.522 0.4096 2.1 0.4087 2.688-0.0013 0.04-0.0275 0.095-0.0499 0.123-0.0499s0.101-0.0363 0.161-0.0806 0.131-0.0805 0.156-0.0805c0.026 0 0.071-0.0254 0.1-0.0564s0.129-0.0965 0.223-0.1454l0.17-0.089 0.031 0.0831c0.018 0.0456 0.032 0.1321 0.032 0.1921 0 0.1728 0.061 0.2697 0.195 0.3096 0.164 0.049 0.815 0.0252 0.885-0.0324 0.061-0.051 0.082-6.1266 0.021-6.2232-0.045-0.0717-1.088-0.0897-1.182-0.0204-0.064 0.0465-0.065 0.0943-0.081 2.5022l-0.016 2.4547-0.307 0.1536c-0.447 0.2232-0.593 0.2847-0.733 0.3083-0.069 0.0116-0.185 0.0425-0.257 0.0687-0.323 0.117-1.016 0.0152-1.273-0.1872-0.361-0.2836-0.369-0.3482-0.39-3.0306-0.014-1.7803-0.027-2.2547-0.06-2.2879-0.042-0.0419-0.819-0.07-1.015-0.0367zm12.451 0.054c-0.096 0.0708-0.126 6.1381-0.032 6.2421 0.065 0.0719 0.928 0.0961 1.053 0.0297 0.09-0.0482 0.099-6.18 0.009-6.2546-0.082-0.0675-0.943-0.0819-1.03-0.0172zm5.21 8.7563c-0.142 0.013-0.39 0.047-0.55 0.075s-0.347 0.052-0.416 0.052-0.17 0.021-0.227 0.046c-0.056 0.026-0.188 0.062-0.293 0.081-0.106 0.019-0.225 0.056-0.266 0.082-0.041 0.027-0.106 0.049-0.145 0.049-0.114 0-0.956 0.41-1.09 0.531-0.446 0.402-0.229 0.566 0.511 0.386 0.693-0.168 3-0.157 3.325 0.017 0.066 0.035 0.135 0.064 0.151 0.064 0.03 0 0.213 0.19 0.215 0.224 0.001 0.01 0.015 0.084 0.031 0.163 0.041 0.206-0.022 0.907-0.1 1.103-0.034 0.086-0.062 0.204-0.062 0.261 0 0.058-0.029 0.162-0.065 0.233-0.036 0.07-0.075 0.185-0.086 0.256s-0.047 0.18-0.08 0.241c-0.033 0.062-0.06 0.142-0.061 0.178 0 0.035-0.037 0.137-0.081 0.226-0.043 0.088-0.079 0.19-0.08 0.225 0 0.036-0.029 0.108-0.064 0.161-0.036 0.053-0.065 0.126-0.065 0.161 0 0.036-0.029 0.112-0.065 0.17s-0.065 0.124-0.065 0.147-0.037 0.116-0.083 0.207c-0.059 0.118-0.08 0.205-0.072 0.304l0.01 0.139 0.145 0.01c0.101 0.006 0.17-0.009 0.225-0.049 0.119-0.086 0.592-0.56 0.666-0.666 0.035-0.051 0.094-0.13 0.13-0.177s0.103-0.143 0.148-0.213c0.219-0.34 0.267-0.421 0.343-0.58 0.025-0.054 0.06-0.119 0.077-0.146 0.016-0.026 0.046-0.084 0.065-0.128 0.019-0.045 0.07-0.148 0.113-0.231 0.043-0.082 0.078-0.173 0.078-0.201 0-0.029 0.029-0.106 0.065-0.172 0.035-0.066 0.065-0.15 0.065-0.186s0.027-0.116 0.06-0.178c0.033-0.061 0.07-0.19 0.082-0.286 0.013-0.096 0.044-0.215 0.07-0.265s0.062-0.239 0.08-0.422c0.019-0.182 0.051-0.382 0.072-0.444 0.151-0.45-0.033-1.11-0.33-1.182-0.046-0.011-0.134-0.047-0.196-0.08s-0.164-0.059-0.226-0.059c-0.118 0-0.602-0.085-0.648-0.113-0.046-0.029-1.044-0.039-1.311-0.014zm-29.16 0.653c-0.16944 0.222-0.07428 0.381 0.52821 0.884 0.10026 0.084 0.18951 0.16 0.19841 0.169 0.08294 0.084 0.8931 0.709 0.9187 0.709 0.0072 0 0.0619 0.045 0.1217 0.101 0.0597 0.055 0.145 0.124 0.1895 0.152s0.2055 0.139 0.3577 0.245c0.1523 0.107 0.2996 0.209 0.3274 0.227 0.1718 0.109 0.4693 0.308 0.4983 0.333 0.0189 0.016 0.0881 0.054 0.1537 0.085 0.0657 0.031 0.1194 0.069 0.1194 0.085s0.0199 0.028 0.0442 0.028c0.0242 0 0.0852 0.033 0.1354 0.072 0.1002 0.078 0.2293 0.154 0.403 0.236 0.0623 0.03 0.1206 0.065 0.1294 0.079 0.009 0.014 0.0672 0.048 0.1295 0.076 0.0623 0.029 0.1424 0.07 0.178 0.092 0.2493 0.154 0.3113 0.187 0.3514 0.187 0.0249 0 0.0628 0.021 0.0842 0.046 0.0214 0.026 0.092 0.064 0.1568 0.086 0.0648 0.021 0.1372 0.058 0.1607 0.081 0.0236 0.024 0.1004 0.058 0.1708 0.077s0.128 0.048 0.128 0.064 0.0566 0.045 0.1257 0.064c0.0692 0.018 0.143 0.054 0.1641 0.079s0.0847 0.056 0.1414 0.069c0.0565 0.012 0.1416 0.049 0.1888 0.082 0.0473 0.033 0.1041 0.061 0.1262 0.061 0.0391 0 0.2783 0.105 0.5225 0.229 0.0659 0.033 0.1393 0.061 0.1631 0.061 0.0239 0 0.0988 0.028 0.1666 0.062 0.0678 0.035 0.1642 0.072 0.2141 0.083 0.05 0.01 0.1463 0.048 0.2141 0.082s0.1499 0.063 0.1825 0.063c0.0325 0 0.1132 0.027 0.1792 0.06 0.0661 0.033 0.1709 0.072 0.2329 0.085 0.0621 0.013 0.1422 0.043 0.178 0.065 0.0359 0.023 0.1307 0.052 0.2107 0.065 0.0801 0.012 0.1963 0.05 0.2585 0.083 0.0621 0.033 0.1574 0.061 0.2117 0.061 0.0544 0 0.1538 0.027 0.2209 0.062 0.0671 0.034 0.1831 0.071 0.2577 0.082 0.0747 0.011 0.2085 0.048 0.2975 0.08 0.089 0.033 0.2306 0.068 0.3146 0.078 0.083 0.01 0.24 0.048 0.346 0.083 0.108 0.036 0.246 0.066 0.309 0.066 0.062 0 0.168 0.021 0.235 0.046 0.068 0.025 0.249 0.062 0.405 0.082 0.155 0.019 0.337 0.054 0.404 0.077 0.067 0.024 0.246 0.052 0.398 0.064 0.151 0.011 0.384 0.043 0.517 0.071 0.134 0.028 0.44 0.064 0.68 0.079 0.24 0.016 0.663 0.052 0.939 0.081 0.567 0.06 2.98 0.049 3.285-0.014 0.089-0.019 0.376-0.049 0.638-0.067s0.575-0.054 0.696-0.079 0.329-0.055 0.462-0.067c0.134-0.012 0.323-0.041 0.421-0.065s0.302-0.06 0.453-0.08c0.152-0.02 0.326-0.055 0.389-0.078 0.062-0.023 0.196-0.052 0.298-0.065 0.103-0.012 0.266-0.05 0.364-0.084s0.225-0.063 0.283-0.064c0.059-0.001 0.165-0.023 0.236-0.05 0.071-0.028 0.227-0.07 0.346-0.094 0.118-0.024 0.257-0.064 0.307-0.09 0.05-0.025 0.149-0.056 0.22-0.069 0.07-0.013 0.169-0.044 0.219-0.07 0.05-0.025 0.152-0.06 0.227-0.076 0.177-0.038 0.535-0.155 0.639-0.209 0.045-0.023 0.132-0.053 0.194-0.066 0.063-0.013 0.176-0.051 0.251-0.084 0.076-0.033 0.2-0.088 0.275-0.121 0.076-0.033 0.189-0.071 0.251-0.084s0.135-0.043 0.162-0.065c0.027-0.024 0.11-0.058 0.185-0.078s0.144-0.05 0.154-0.065c0.01-0.016 0.09-0.053 0.179-0.083 0.089-0.029 0.162-0.065 0.162-0.079s0.063-0.042 0.141-0.061c0.077-0.02 0.158-0.057 0.18-0.082 0.022-0.026 0.081-0.056 0.132-0.068 0.051-0.011 0.11-0.041 0.131-0.066s0.095-0.061 0.164-0.08c0.069-0.018 0.125-0.046 0.125-0.062 0-0.015 0.055-0.046 0.122-0.067s0.144-0.058 0.171-0.082c0.027-0.023 0.1-0.066 0.162-0.093 0.061-0.028 0.17-0.087 0.241-0.132 0.072-0.044 0.175-0.101 0.23-0.126 0.054-0.025 0.118-0.068 0.141-0.095 0.023-0.028 0.058-0.051 0.078-0.051 0.021 0 0.122-0.058 0.226-0.13 0.105-0.072 0.221-0.145 0.259-0.162s0.128-0.075 0.199-0.128c0.071-0.054 0.182-0.132 0.247-0.174 0.589-0.389 0.691-0.783 0.258-0.995-0.161-0.079-0.504-0.025-0.715 0.112-0.045 0.029-0.136 0.062-0.202 0.073-0.067 0.012-0.122 0.034-0.122 0.048 0 0.015-0.069 0.046-0.154 0.068-0.084 0.023-0.19 0.061-0.234 0.084-0.1 0.053-0.43 0.168-0.583 0.203-0.062 0.015-0.179 0.057-0.259 0.094-0.08 0.038-0.175 0.069-0.21 0.07-0.036 0.001-0.092 0.022-0.126 0.048-0.033 0.025-0.143 0.062-0.243 0.083-0.1 0.02-0.197 0.049-0.216 0.065-0.019 0.015-0.114 0.044-0.21 0.064-0.097 0.02-0.209 0.057-0.249 0.082s-0.141 0.055-0.226 0.066-0.205 0.045-0.267 0.075c-0.063 0.03-0.19 0.064-0.282 0.074-0.093 0.011-0.203 0.042-0.245 0.069-0.042 0.028-0.148 0.059-0.236 0.069-0.088 0.011-0.24 0.046-0.338 0.078s-0.251 0.069-0.34 0.082-0.198 0.041-0.243 0.063c-0.044 0.022-0.168 0.05-0.275 0.063-0.107 0.012-0.286 0.05-0.399 0.084-0.114 0.034-0.267 0.063-0.34 0.063-0.074 0.001-0.237 0.028-0.363 0.061-0.125 0.034-0.329 0.071-0.453 0.083s-0.298 0.042-0.387 0.066-0.348 0.06-0.577 0.08c-0.228 0.019-0.452 0.049-0.497 0.066s-0.237 0.039-0.426 0.049-0.599 0.047-0.911 0.082c-0.78 0.089-3.71 0.097-4.402 0.013-0.24-0.029-0.648-0.067-0.906-0.083s-0.571-0.05-0.696-0.076c-0.124-0.026-0.397-0.063-0.606-0.082-0.208-0.019-0.412-0.047-0.453-0.062-0.04-0.016-0.233-0.046-0.429-0.069-0.195-0.022-0.412-0.06-0.481-0.084-0.07-0.025-0.173-0.045-0.231-0.045-0.057 0-0.219-0.03-0.3597-0.067-0.1408-0.037-0.3361-0.079-0.434-0.093-0.1971-0.029-0.6804-0.141-0.9063-0.211-0.0801-0.024-0.2314-0.059-0.3362-0.078-0.1048-0.018-0.2072-0.047-0.2277-0.064-0.0204-0.017-0.1264-0.045-0.2355-0.063-0.1092-0.017-0.2399-0.053-0.2907-0.079-0.0506-0.026-0.1647-0.058-0.2535-0.071s-0.2121-0.051-0.2742-0.084-0.1494-0.06-0.1942-0.06c-0.0448-0.001-0.1435-0.029-0.2194-0.063-0.0759-0.035-0.1925-0.072-0.259-0.084-0.0664-0.011-0.1502-0.039-0.1861-0.061-0.0358-0.023-0.1159-0.051-0.178-0.064s-0.1711-0.048-0.2423-0.079c-0.0712-0.03-0.195-0.078-0.2751-0.106-0.3087-0.108-0.3762-0.133-0.5016-0.189-0.0713-0.032-0.1696-0.068-0.2186-0.08-0.0489-0.012-0.1431-0.049-0.2092-0.083-0.066-0.033-0.1407-0.061-0.1659-0.061-0.0254 0-0.0915-0.027-0.147-0.061-0.0555-0.033-0.1472-0.07-0.2038-0.082s-0.1191-0.041-0.1388-0.065c-0.0196-0.023-0.0893-0.053-0.1548-0.065s-0.156-0.048-0.2011-0.08c-0.0452-0.031-0.1284-0.067-0.185-0.08-0.0566-0.012-0.1203-0.043-0.1415-0.068-0.0212-0.026-0.0548-0.046-0.0746-0.046s-0.1091-0.035-0.1983-0.077c-0.0893-0.042-0.1988-0.093-0.2433-0.113-0.0445-0.019-0.1027-0.049-0.1294-0.065s-0.2199-0.114-0.4292-0.218c-0.6171-0.305-0.8868-0.445-0.9344-0.484-0.0246-0.021-0.0841-0.047-0.1322-0.059-0.0482-0.012-0.10514-0.043-0.12674-0.069-0.02153-0.026-0.08408-0.068-0.13886-0.095-0.05486-0.026-0.17914-0.09-0.27632-0.143-0.23514-0.127-0.33192-0.124-0.4367 0.012z" fill-rule="evenodd"/>
 <defs>
  <linearGradient id="paint0_linear_amazon-icon-circle-pp9voy380ws" gradientUnits="userSpaceOnUse" gradientTransform="translate(-1.41486e-06 40) scale(40) rotate(-90)">
   <stop offset="0"/>
   <stop stop-color="#262E40" offset="1"/>
  </linearGradient>
  <linearGradient id="paint1_linear_amazon-icon-circle-pp9voy380ws" gradientUnits="userSpaceOnUse" gradientTransform="translate(-4.7086e-7 -18.556) scale(32 55.111)">
   <stop stop-color="#2B83BE" offset="0"/>
   <stop stop-color="#58C2EB" offset="1"/>
  </linearGradient>
 </defs>
</svg>
