<?xml version="1.0" encoding="UTF-8" standalone="no"?>
<svg width="36" xmlns="http://www.w3.org/2000/svg" viewBox="0 0 40 40" height="36">
 <path d="m40 20.03c0.007-4.628-1.592-9.116-4.523-12.698-2.932-3.5814-7.015-6.0354-11.554-6.9434-4.538-0.90794-9.251-0.21359-13.335 1.9647-4.0843 2.1783-7.2863 5.7056-9.0604 9.9807-1.7742 4.275-2.0106 9.033-0.66907 13.463 1.3416 4.43 4.1781 8.257 8.026 10.83 3.8475 2.572 8.4685 3.73 13.076 3.277 4.606-0.454 8.912-2.491 12.185-5.764 3.741-3.743 5.847-8.817 5.855-14.11z"/>
 <path fill="#fff" d="m0.011707 12.527c-0.031929-1.068 0.27025-2.119 0.86439-3.0066 0.5916-0.8414 1.4139-1.494 2.3677-1.8791 1.0836-0.4348 2.2216-0.7193 3.3824-0.8456l2.2361-0.1973v-0.4322c0.0557-0.7574-0.08-1.5167-0.3946-2.2079-0.1892-0.2612-0.4425-0.4692-0.7354-0.6041-0.2929-0.135-0.6155-0.1922-0.937-0.1664h-0.2067c-0.5218 0.0378-1.0228 0.2199-1.4469 0.5262-0.4107 0.3108-0.6918 0.7626-0.7892 1.2684-0.0109 0.1387-0.0661 0.2702-0.1575 0.3751s-0.214 0.1776-0.3499 0.2074l-2.8938-0.3476c-0.28817-0.0689-0.43223-0.2193-0.43223-0.451-0.00709-0.0593-0.00709-0.1192 0-0.1785 0.09892-0.6768 0.33909-1.3251 0.70493-1.903 0.3658-0.5779 0.8491-1.0723 1.4185-1.4512 1.1853-0.74661 2.5463-1.1679 3.9461-1.2215h0.6389c1.6453-0.10121 3.2665 0.43361 4.5285 1.4939 0.17 0.1698 0.327 0.352 0.47 0.545 0.123 0.165 0.236 0.3376 0.338 0.5167 0.104 0.2115 0.18 0.4358 0.226 0.6671 0.069 0.2882 0.119 0.4886 0.15 0.6013 0.049 0.235 0.074 0.4742 0.075 0.7141v6.8028c-0.006 0.411 0.057 0.821 0.188 1.212 0.085 0.278 0.208 0.544 0.367 0.789l0.582 0.78c0.088 0.117 0.14 0.257 0.15 0.404 0.004 0.076-0.012 0.151-0.047 0.219-0.034 0.067-0.086 0.125-0.15 0.166l-2.293 1.982c-0.107 0.076-0.233 0.12-0.364 0.128s-0.262-0.02-0.378-0.081c-0.221-0.181-0.431-0.376-0.629-0.582l-0.376-0.404c-0.1309-0.156-0.2532-0.319-0.3665-0.489-0.1691-0.244-0.2881-0.407-0.357-0.488-0.7483 0.874-1.7238 1.524-2.8187 1.879-0.6985 0.185-1.4197 0.27-2.1422 0.253-0.5954 0.017-1.1882-0.086-1.7433-0.302s-1.0613-0.542-1.4887-0.957c-0.40325-0.451-0.71166-0.979-0.90695-1.552s-0.27348-1.179-0.22994-1.783zm4.3783-0.507c-0.0309 0.57 0.1423 1.133 0.4886 1.588 0.1609 0.196 0.365 0.352 0.5965 0.457 0.2315 0.104 0.484 0.153 0.7377 0.144h0.3758c0.3579-0.097 0.6908-0.269 0.9762-0.506 0.2853-0.237 0.5163-0.532 0.6774-0.866 0.1873-0.329 0.3265-0.684 0.4134-1.052 0.0809-0.308 0.1313-0.622 0.1504-0.94v-1.8225c-0.7507-0.0251-1.5016 0.0411-2.2362 0.1973-0.6516 0.1179-1.2379 0.469-1.6495 0.9882-0.4115 0.518-0.6201 1.169-0.5866 1.83l0.0563-0.018z" transform="translate(13.749 8)"/>
 <path fill="#FB9738" d="m0.065769 0.098653c0.081431-0.13154 0.2161-0.13154 0.40401 0 4.2077 2.4515 8.9982 3.7238 13.868 3.683 3.366-0.016 6.701-0.653 9.837-1.8791l0.366-0.1503 0.339-0.1504c0.1-0.0565 0.218-0.0724 0.33-0.0445 0.112 0.028 0.209 0.0977 0.271 0.1949 0.144 0.2004 0.097 0.3852-0.141 0.5543s-0.63 0.4259-1.175 0.7704c-1.527 0.8938-3.171 1.5705-4.885 2.0107-1.716 0.4644-3.484 0.7044-5.262 0.7141-2.57 0.0181-5.1204-0.4505-7.5163-1.3812-2.338-0.9126-4.4902-2.2435-6.3514-3.9273-0.04209-0.02872-0.077387-0.06631-0.10336-0.11014-0.025983-0.04384-0.042007-0.09286-0.04694-0.14357 0.0077652-0.05237 0.03062-0.10135 0.065769-0.14094v0.000003z" transform="translate(6 27.672)"/>
 <path fill="#FB9738" d="m0.017627 1.0808c0.039528-0.0732 0.090253-0.13978 0.15033-0.19732 0.37094-0.26241 0.78404-0.45942 1.2214-0.58252 0.6135-0.16569 1.244-0.26027 1.8791-0.28187 0.1587-0.025455 0.3205-0.025455 0.4792 0.000004 0.7641 0.0689 1.2214 0.19418 1.3717 0.37583 0.0762 0.13761 0.112 0.29393 0.1034 0.45098v0.1785c-0.0266 0.7254-0.1891 1.4393-0.4792 2.1046-0.2819 0.7485-0.7433 1.4164-1.3436 1.9449-0.0617 0.0584-0.141 0.0947-0.2255 0.1033h-0.1033c-0.1002-0.0501-0.1253-0.144-0.0752-0.2818 0.4827-0.9677 0.8003-2.0093 0.9396-3.0818 0.0103-0.1423-0.026-0.2841-0.1034-0.404-0.1691-0.2004-0.642-0.3006-1.4187-0.3006-0.2881 0-0.6264 0.0156-1.0147 0.047l-1.1745 0.1503c-0.07353 0.0081-0.14744-0.012-0.20667-0.0564-0.011431-0.0148-0.01763-0.033-0.01763-0.0517 2.674e-7 -0.0187 0.0061989-0.0368 0.017627-0.0516-0.00368-0.0218-0.00368-0.044 0-0.0658z" transform="translate(28.776 27.123)"/>
</svg>
