<?xml version="1.0" encoding="UTF-8" standalone="no"?>
<svg width="36" xmlns="http://www.w3.org/2000/svg" viewBox="0 0 40 40" height="36">
 <path d="m20 40c11.046 0 20-8.954 20-20s-8.954-20-20-20c-11.046 0.0000044716-20 8.9543-20 20-0.0000085382 11.046 8.9543 20 20 20z" fill="url(#paint0_linear_apple-music-icon-circle-mgjoem60l78)"/>
 <g opacity=".192" filter="url(#filter0_f-mgjoem60l78)">
  <path d="m61.971 2.2677e-7c-16.435 0.00010809-32.198 6.5292-43.82 18.151s-18.151 27.385-18.151 43.82c0.00010768 16.436 6.5292 32.199 18.151 43.819s27.385 18.15 43.82 18.15c16.436 0 32.199-6.53 43.819-18.15s18.15-27.383 18.15-43.819c0-16.435-6.53-32.198-18.15-43.82s-27.383-18.151-43.819-18.151v2.2677e-7zm31.06 12.299c1.465-0.001 2.541 0.821 2.959 2.263 0.146 0.502 0.182 9.704 0.145 36.646l-0.05 35.975-0.378 1.342c-1.283 4.563-4.416 7.793-8.853 9.125-3.136 0.942-7.719 1.291-9.97 0.761-2.004-0.473-3.456-1.31-5.045-2.908-2.311-2.325-3.336-4.7-3.341-7.74-0.002-1.7 0.299-2.98 1.104-4.688 1.139-2.414 2.613-3.868 5.267-5.194 2.125-1.063 4.024-1.613 9.574-2.772 3.647-0.762 4.535-1.089 5.246-1.934 0.978-1.161 0.956-0.73 0.906-19.138-0.043-15.994-0.061-16.873-0.352-17.317-0.431-0.658-1.33-0.998-2.28-0.862-1.01 0.144-36.897 7.406-37.792 7.647-0.995 0.268-1.715 1.059-1.947 2.137-0.136 0.637-0.19 7.694-0.191 25.071-0.001 26.688 0.021 26.083-1.046 28.919-0.305 0.808-0.851 1.928-1.213 2.478-0.917 1.4-2.679 3.1-4.049 3.91-3.277 1.94-9.685 2.94-13.108 2.04-3.626-0.95-6.32-3.42-7.534-6.9-0.582-1.67-0.719-4.417-0.311-6.251 0.427-1.92 1.416-3.75 2.75-5.09 2.349-2.36 5.126-3.457 12.604-4.98 1.615-0.329 3.28-0.711 3.701-0.85 0.888-0.291 1.852-1.207 2.286-2.173 0.286-0.635 0.307-2.185 0.387-28.847l0.084-28.177 0.392-0.796c0.463-0.94 1.439-1.825 2.423-2.198 0.637-0.24 37.906-7.837 44.229-9.015 1.43-0.266 2.961-0.484 3.403-0.484z" transform="translate(3.7538 3.73) scale(.26458)"/>
 </g>
 <path fill="#fff" d="m69.241 0c-18.364 0-35.976 7.295-48.961 20.28s-20.28 30.597-20.28 48.961 7.295 35.979 20.28 48.959c12.985 12.99 30.597 20.28 48.961 20.28 9.093 0 18.097-1.79 26.497-5.27 8.402-3.48 16.032-8.58 22.462-15.01s11.53-14.06 15.01-22.462c3.48-8.4 5.27-17.404 5.27-26.497s-1.79-18.097-5.27-26.497c-3.48-8.401-8.58-16.034-15.01-22.464-6.43-6.429-14.06-11.53-22.462-15.009-8.4-3.48-17.404-5.271-26.497-5.271zm31.059 19.568c1.47-0.001 2.54 0.821 2.96 2.264 0.15 0.502 0.18 9.704 0.14 36.646l-0.04 35.975-0.38 1.341c-1.29 4.566-4.419 7.796-8.857 9.126-3.136 0.94-7.719 1.29-9.969 0.76-2.004-0.47-3.456-1.31-5.045-2.91-2.311-2.32-3.336-4.698-3.341-7.737-0.003-1.701 0.299-2.981 1.104-4.688 1.139-2.415 2.613-3.868 5.267-5.195 2.125-1.062 4.024-1.612 9.574-2.772 3.647-0.762 4.535-1.088 5.246-1.933 0.978-1.162 0.956-0.73 0.906-19.139-0.043-15.993-0.061-16.872-0.352-17.316-0.431-0.658-1.331-0.998-2.281-0.862-1.009 0.144-36.896 7.405-37.791 7.646-0.995 0.268-1.716 1.06-1.947 2.138-0.136 0.637-0.19 7.694-0.191 25.07-0.001 26.688 0.02 26.078-1.047 28.918-0.304 0.81-0.85 1.93-1.213 2.48-0.916 1.4-2.678 3.1-4.049 3.91-3.277 1.94-9.685 2.94-13.107 2.04-3.627-0.95-6.32-3.42-7.535-6.9-0.582-1.67-0.718-4.42-0.31-6.25 0.427-1.92 1.415-3.751 2.749-5.091 2.35-2.361 5.127-3.458 12.605-4.981 1.614-0.328 3.279-0.711 3.7-0.849 0.889-0.292 1.853-1.207 2.287-2.173 0.285-0.635 0.307-2.185 0.386-28.847l0.084-28.177 0.392-0.796c0.463-0.94 1.439-1.825 2.424-2.198 0.636-0.241 37.906-7.838 44.229-9.015 1.429-0.267 2.96-0.484 3.402-0.485z" transform="translate(1.68 1.6802) scale(.26458)"/>
 <defs>
  <filter id="filter0_f-mgjoem60l78" height="36.892" width="36.892" color-interpolation-filters="sRGB" y="1.6804" x="1.7042" filterUnits="userSpaceOnUse">
   <feFlood flood-opacity="0" result="BackgroundImageFix"/>
   <feBlend result="shape" mode="normal" in2="BackgroundImageFix" in="SourceGraphic"/>
   <feGaussianBlur stdDeviation="1.02479" result="effect1_foregroundBlur"/>
  </filter>
  <linearGradient id="paint0_linear_apple-music-icon-circle-mgjoem60l78" gradientUnits="userSpaceOnUse" gradientTransform="translate(24.882 -7.0319) scale(37.282) rotate(52.387)">
   <stop stop-color="#FF5E50" offset="0"/>
   <stop stop-color="#FE5C6C" offset=".24904"/>
   <stop stop-color="#E3658A" offset=".37652"/>
   <stop stop-color="#B87EB0" offset=".49695"/>
   <stop stop-color="#916CFF" offset=".62667"/>
   <stop stop-color="#70BCFB" stop-opacity=".91919" offset=".76280"/>
   <stop stop-color="#21C7FE" offset="1"/>
  </linearGradient>
 </defs>
</svg>
