<?xml version="1.0" encoding="UTF-8" standalone="no"?>
<svg width="36" xmlns="http://www.w3.org/2000/svg" viewBox="0 0 40 40" height="36">
 <path d="m40 20c0-4.627-1.604-9.111-4.54-12.688-2.935-3.5767-7.02-6.025-11.558-6.9277-4.538-0.90267-9.249-0.20385-13.33 1.9774-4.0808 2.1812-7.279 5.7099-9.0496 9.9843-1.7707 4.275-2.0044 9.032-0.66116 13.46s4.1802 8.253 8.0275 10.823c3.8473 2.571 8.4673 3.728 13.071 3.275 4.605-0.454 8.91-2.49 12.182-5.762 1.857-1.857 3.331-4.062 4.336-6.488 1.005-2.427 1.522-5.028 1.522-7.654z" fill="#F3F2FA"/>
 <path fill="#FED01B" d="m18.502 11.92c-0.818 0.534-1.68 0.978-2.533 1.458l-8.6758 4.924c-0.1 0.083-0.2193 0.138-0.3467 0.16l-0.1155-0.053c-1.2537-0.348-2.4197-0.957-3.4215-1.788-1.0018-0.83-1.8169-1.862-2.3919-3.03-0.78609-1.557-1.1275-3.301-0.98662-5.0396 0.024503-0.0478 0.042443-0.0986 0.053332-0.1512 0.049898-0.6925 0.19651-1.3747 0.43556-2.0266 0.48753-1.4586 1.3275-2.7742 2.4455-3.8302s2.4794-1.8196 3.9634-2.2232c0.8959-0.21867 1.8155-0.32614 2.7377-0.31995 1.8405 0.053454 3.6245 0.64527 5.1315 1.7022 1.507 1.057 2.671 2.5327 3.348 4.2445 0.116 0.3022 0.223 0.6133 0.338 0.8889 0.243 0.9943 0.348 2.0172 0.311 3.04-0.024 0.6902-0.123 1.3752-0.293 2.0442zm-9.2266 3.351c1.1596 0.031 2.3026-0.282 3.2856-0.9 0.982-0.618 1.759-1.512 2.233-2.571 0.475-1.059 0.625-2.235 0.432-3.3792-0.193-1.1441-0.72-2.2056-1.516-3.0504-0.795-0.8448-1.823-1.4353-2.953-1.6968-1.1309-0.2616-2.3135-0.1826-3.3991 0.227s-2.0257 1.1315-2.7016 2.0747c-0.6759 0.9431-1.0574 2.0653-1.0964 3.2249-0.0273 0.7749 0.0993 1.5478 0.3725 2.2728 0.2732 0.726 0.6875 1.39 1.219 1.955 0.5314 0.564 1.1696 1.018 1.8774 1.334 0.7079 0.317 1.4715 0.49 2.2466 0.509z" transform="translate(12.574 11.04)"/>
 <path fill="#F34C23" d="m1.7511 0.0088891c-0.1436 1.7379 0.1947 3.4818 0.9778 5.04 0.573 1.1679 1.3863 2.2017 2.3865 3.0335 1.0003 0.8317 2.165 1.4428 3.4179 1.7931l0.1156 0.0534-4.2045 2.4091-1.9288 1.093c-0.394 0.257-0.8662 0.368-1.3334 0.311-0.29407-0.056-0.56209-0.206-0.76397-0.427s-0.32677-0.501-0.35601-0.799c-0.039664-0.214-0.060484-0.432-0.06222-0.649 2.7127e-7 -3.8878 2.7127e-7 -7.7781 2.7127e-7 -11.671v-0.196l1.7511 0.0088891z" transform="translate(10.862 19.582)"/>
 <path fill="#F34C23" d="m1.7778 12.077h-1.7778c-3.3908e-7 -3.4666-3.3908e-7 -6.9422-3.3908e-7 -10.4 0-1.4755 1.1111-2.0888 2.4-1.3866 2.08 1.1289 4.1244 2.3289 6.2222 3.5022 0 0 0 0.0445 0.0622 0.0711-1.4839 0.4036-2.8453 1.1672-3.9633 2.2232s-1.958 2.3716-2.4455 3.8301c-0.2284 0.648-0.366 1.324-0.4089 2.009-0.0221 0.054-0.052 0.105-0.0889 0.151z" transform="translate(10.836 7.5142)"/>
 <path fill="#F45832" d="m0.0088873 5.0489c0.17568-0.6686 0.27997-1.3539 0.31111-2.0445 0.02942-1.0113-0.07822-2.022-0.32-3.0044 0.73778 0.38222 1.4578 0.8 2.1689 1.2267 0.1927 0.1225 0.3614 0.2791 0.4978 0.4622 0.2056 0.235 0.319 0.5366 0.319 0.8489 0 0.3122-0.1134 0.6139-0.319 0.8489-0.1834 0.2144-0.4031 0.3949-0.6489 0.5333l-2.0089 1.1289z" transform="translate(31.067 17.911)"/>
 <path fill="#FE8C01" d="m5.7351 11.753c-1.5583-0.038-3.0378-0.693-4.113-1.8217-1.0752-1.1285-1.6581-2.638-1.6204-4.1963 0.037743-1.5582 0.69295-3.0377 1.8215-4.1129s2.638-1.6581 4.1963-1.6204c1.5277 0.08415 2.9624 0.7609 3.9985 1.8864 1.037 1.1255 1.594 2.6109 1.552 4.1403-0.042 1.5295-0.678 2.9824-1.7748 4.0496-1.0963 1.068-2.5656 1.665-4.0957 1.666l0.0356 0.009zm0.1511-7.2002v1.4311c0 0.3823 0 0.3823-0.3556 0.2756-0.1874-0.0573-0.3851-0.0728-0.5792-0.0455-0.194 0.0273-0.3798 0.0967-0.5441 0.2035-0.1644 0.1067-0.3033 0.2482-0.4072 0.4144-0.1038 0.1662-0.17 0.3531-0.1939 0.5476-0.0123 0.1844 0.0119 0.3695 0.0712 0.5445 0.0592 0.1751 0.1524 0.3368 0.2741 0.4759 0.1218 0.1391 0.2697 0.2528 0.4354 0.3347s0.3459 0.1304 0.5304 0.1427c0.1844 0.0122 0.3695-0.012 0.5445-0.0712 0.1751-0.0593 0.3368-0.1524 0.4759-0.2742 0.1391-0.1217 0.2528-0.2697 0.3347-0.4354s0.1304-0.3459 0.1427-0.5303v-3.0312c0-0.1955 0.0533-0.2755 0.2577-0.2666 0.2045 0.0089 0.5689 0 0.8889 0s0.2311-0.0622 0.2222-0.2222v-1.0134c0-0.1778-0.0533-0.2489-0.24-0.24h-1.6c-0.1688 0-0.2222 0.0445-0.2222 0.2222v1.5289l-0.0355 0.0089z" transform="translate(16.114 14.558)"/>
 <path fill="#FAF5F4" d="m2.1186 1.7511v-1.5289c0-0.17776 0.0534-0.2222 0.2223-0.2222 0.5333-2.0345e-7 1.0666-2.0345e-7 1.6-2.0345e-7 0.1866 0 0.2489 0.062222 0.24 0.24v1.0133c0 0.1689-0.0623 0.2311-0.2223 0.2223-0.16-0.0089-0.5688 0-0.8888 0s-0.2578 0.0711-0.2578 0.2666v3.0311c-0.0123 0.1845-0.0607 0.3647-0.1426 0.5304s-0.1957 0.3136-0.3348 0.4354c-0.139 0.1217-0.3007 0.2149-0.4758 0.2741-0.1751 0.0593-0.3602 0.0835-0.5446 0.0712-0.1844-0.0122-0.36464-0.0607-0.53034-0.1426-0.16571-0.0819-0.31366-0.1956-0.43541-0.3347s-0.21491-0.3008-0.27416-0.4759c-0.059258-0.1751-0.083449-0.3601-0.071192-0.5445 0.023892-0.1945 0.090088-0.3815 0.19394-0.5477 0.10384-0.1662 0.24283-0.3076 0.40718-0.4144 0.16435-0.1067 0.35009-0.1762 0.54418-0.2034 0.194-0.0273 0.3917-0.0118 0.5791 0.0455 0.3556 0.0977 0.3556 0.0977 0.3556-0.2756s0.0355-0.96 0.0355-1.44z" transform="translate(19.881 17.351)"/>
</svg>
