<?xml version="1.0" encoding="UTF-8" standalone="no"?>
<svg width="36" xmlns="http://www.w3.org/2000/svg" viewBox="0 0 40 40" height="36">
 <path d="m40 20.03c0.007-4.628-1.592-9.116-4.523-12.698-2.932-3.5814-7.015-6.0354-11.554-6.9434-4.538-0.90794-9.251-0.21359-13.335 1.9647-4.0843 2.1783-7.2863 5.7056-9.0604 9.9807-1.7742 4.275-2.0106 9.033-0.66907 13.463 1.3416 4.43 4.1781 8.257 8.026 10.83 3.8475 2.572 8.4685 3.73 13.076 3.277 4.606-0.454 8.912-2.491 12.185-5.764 3.741-3.743 5.847-8.817 5.855-14.11z" fill="#111"/>
 <path fill="#fff" d="m5.7848 1.3456e-7c-0.8219 0.79443-1.8098 1.3968-2.8924 1.7637-1.0826-0.3669-2.0705-0.96927-2.8924-1.7637h5.7848z" transform="translate(17.09 27.226)"/>
 <path fill="#fff" d="m8.8098 8.175c-1.1576-0.9829-2.519-1.6967-3.9859-2.0899v9.3029c0 2.499 0.9928 4.896 2.7598 6.663s4.1633 2.76 6.6623 2.76 4.896-0.993 6.663-2.76 2.76-4.164 2.76-6.663v-9.2853c-1.472 0.3901-2.839 1.1008-4.004 2.0811-1.586-1.1161-3.479-1.7151-5.419-1.7151s-3.832 0.599-5.4185 1.7151l-0.0177-0.0088zm0-2.7072c1.6662-0.866 3.5182-1.3139 5.3972-1.3051 1.877-0.0008 3.727 0.4466 5.397 1.3051 0.37-0.2293 0.784-0.4586 1.19-0.6702-1.792-1.6535-4.14-2.5716-6.578-2.5716-2.439 0-4.7873 0.9181-6.579 2.5716 0.3792 0.2116 0.8289 0.4585 1.1816 0.679l-0.0088-0.0088zm-3.4038-1.5432c1.1129-1.2354 2.4731-2.2231 3.9922-2.8992 1.5188-0.67604 3.1638-1.0254 4.8258-1.0254 1.663-1.4779e-7 3.307 0.34936 4.826 1.0254 1.52 0.6761 2.88 1.6638 3.993 2.8992 0.963-0.2414 1.952-0.3716 2.945-0.388v3.977c0.775 0.4789 1.414 1.1479 1.858 1.9436 0.444 0.7958 0.676 1.6918 0.676 2.6028 0 0.91-0.232 1.806-0.676 2.602-0.444 0.795-1.083 1.464-1.858 1.943v0.097c-0.355 2.862-1.747 5.495-3.912 7.401-2.165 1.905-4.953 2.951-7.837 2.939-2.885-0.012-5.6642-1.081-7.8135-3.004s-3.5191-4.568-3.8502-7.433c-0.7816-0.48-1.428-1.151-1.8785-1.951-0.45044-0.799-0.69014-1.699-0.69649-2.617-0.0098892-0.915 0.21613-1.818 0.6563-2.6214 0.44019-0.8031 1.0797-1.4794 1.8569-1.9637v-3.933c0.9751 0.0408 1.9438 0.1766 2.8925 0.4057z" transform="translate(5.7581 7.5693)"/>
 <path fill="#fff" d="m2.3457 0.15424c1.3958-0.11999 2.7967-0.17002 4.1975-0.14992 0.0198 0.55114-0.1151 1.0968-0.3894 1.5753-0.2743 0.4784-0.677 0.8706-1.1626 1.132-0.458 0.2208-0.956 0.3467-1.4639 0.3703-1.4638 0.0617-3.5273 0.097-3.5273 0.097 0.40564-1.6402 1.0141-2.8571 2.3457-3.0247z" transform="translate(20.582 22.804)"/>
 <path fill="#fff" d="m4.2258 0.15881c1.3051 0.14109 1.9135 1.3757 2.2751 3.0247 0 0-2.0635 0-3.5273-0.097-0.508-0.0236-1.0059-0.1496-1.4639-0.3704-0.4741-0.2733-0.86494-0.6704-1.1306-1.1489-0.26562-0.4785-0.39606-1.0202-0.37733-1.5671-0.0000032-0.000020284 2.6543-0.0088384 4.224 0.15871z" transform="translate(12.82 22.799)"/>
 <path fill="#fff" d="m5.5203 0.9171c-0.8329 0.5016-1.7879 0.764-2.7602 0.7584-0.9728 0.0098-1.9289-0.2529-2.7601-0.7584 0.03955-0.19277 0.11108-0.37757 0.21164-0.54673 0.09257-0.14795 0.21587-0.27427 0.36155-0.37037 0.71061 0.20615 1.447 0.31007 2.1869 0.30864 0.7403 0.0062 1.4774-0.09782 2.187-0.30864 0.1633 0.10191 0.2971 0.2448 0.388 0.41446 0.0994 0.15116 0.1627 0.32313 0.1852 0.50264z" transform="translate(17.222 29.483)"/>
</svg>
