<?xml version="1.0" encoding="UTF-8" standalone="no"?>
<svg width="36" xmlns="http://www.w3.org/2000/svg" viewBox="0 0 40 40" height="36">
 <path d="m40 20c0-4.627-1.604-9.111-4.54-12.688-2.935-3.5767-7.02-6.025-11.558-6.9277-4.538-0.90267-9.249-0.20385-13.33 1.9774-4.0808 2.1812-7.279 5.7099-9.0496 9.9843-1.7707 4.275-2.0044 9.032-0.66116 13.46s4.1802 8.253 8.0275 10.823c3.8473 2.571 8.4673 3.728 13.071 3.275 4.605-0.454 8.91-2.49 12.182-5.762 1.857-1.857 3.331-4.062 4.336-6.488 1.005-2.427 1.522-5.028 1.522-7.654z" fill="#F3F2FA"/>
 <path d="m19.811 35c5.971 0 10.811-4.834 10.811-10.798 0-5.963-4.84-10.798-10.811-10.798s-10.811 4.835-10.811 10.798c0 5.964 4.84 10.798 10.811 10.798z" fill="#fc0"/>
 <path fill="#f33" clip-rule="evenodd" d="m25.224 13.196l0.001 10.101-0.024 0.008v0.013c0 0.988-0.072 1.91-0.206 2.38-0.644 2.262-2.728 3.903-5.2 3.903-2.985 0-5.374-2.409-5.374-5.391s2.389-5.391 5.374-5.391c1.407 0 2.688 0.537 3.65 1.416 0.314 0.287 0.594 0.611 0.833 0.965-0.066-0.316-0.132-0.715-0.132-1.055v-12.145l7.036 2.153v4.877l-5.958-1.834z" fill-rule="evenodd"/>
</svg>
