<?xml version="1.0" encoding="UTF-8" standalone="no"?>
<svg width="36" xmlns="http://www.w3.org/2000/svg" viewBox="0 0 40 40" height="36">
 <rect fill-opacity="0" width="40" height="40"/>
 <rect fill-opacity="0" width="40" height="40"/>
 <path d="m20 40c11.046 0 20-8.954 20-20s-8.954-20-20-20-20 8.9543-20 20 8.9543 20 20 20z" fill="#f00"/>
 <rect fill-opacity="0" width="20.909" transform="translate(9.5454 9.5454)" height="20.909"/>
 <path d="m20 10.464c5.259 0 9.536 4.277 9.536 9.536s-4.277 9.536-9.536 9.536-9.536-4.277-9.536-9.536 4.277-9.536 9.536-9.536zm0-0.9186c-5.775 0-10.455 4.6796-10.455 10.455 0.0004 5.775 4.68 10.454 10.455 10.454s10.454-4.679 10.454-10.454-4.679-10.455-10.454-10.455z" fill="#fff"/>
 <path d="m16.364 25.228l8.863-5.455-8.863-5v10.455z" fill="#fff"/>
</svg>
